<svg width="330" height="330" viewBox="0 0 330 330" fill="none" xmlns="http://www.w3.org/2000/svg">
<g filter="url(#filter0_dd_2_8)">
<path d="M196.483 286C186.425 288.61 175.875 290 165 290C154.125 290 143.575 288.61 133.517 286H196.483ZM262.682 243C257.425 249.575 251.517 255.607 245.058 261H84.9424C78.4826 255.607 72.5755 249.575 67.3184 243H262.682ZM287.696 189C285.72 199.16 282.516 208.881 278.24 218H51.7598C47.4843 208.881 44.2795 199.16 42.3037 189H287.696ZM165 40C233.702 40 289.457 95.4248 289.994 164H40.0059C40.5432 95.4248 96.2981 40 165 40Z" fill="url(#paint0_linear_2_8)"/>
</g>
<defs>
<filter id="filter0_dd_2_8" x="0.00585938" y="0" width="329.988" height="330" filterUnits="userSpaceOnUse" color-interpolation-filters="sRGB">
<feFlood flood-opacity="0" result="BackgroundImageFix"/>
<feColorMatrix in="SourceAlpha" type="matrix" values="0 0 0 0 0 0 0 0 0 0 0 0 0 0 0 0 0 0 127 0" result="hardAlpha"/>
<feOffset/>
<feGaussianBlur stdDeviation="20"/>
<feComposite in2="hardAlpha" operator="out"/>
<feColorMatrix type="matrix" values="0 0 0 0 1 0 0 0 0 0 0 0 0 0 1 0 0 0 0.1 0"/>
<feBlend mode="normal" in2="BackgroundImageFix" result="effect1_dropShadow_2_8"/>
<feColorMatrix in="SourceAlpha" type="matrix" values="0 0 0 0 0 0 0 0 0 0 0 0 0 0 0 0 0 0 127 0" result="hardAlpha"/>
<feOffset/>
<feGaussianBlur stdDeviation="5"/>
<feComposite in2="hardAlpha" operator="out"/>
<feColorMatrix type="matrix" values="0 0 0 0 1 0 0 0 0 0 0 0 0 0 1 0 0 0 0.25 0"/>
<feBlend mode="normal" in2="effect1_dropShadow_2_8" result="effect2_dropShadow_2_8"/>
<feBlend mode="normal" in="SourceGraphic" in2="effect2_dropShadow_2_8" result="shape"/>
</filter>
<linearGradient id="paint0_linear_2_8" x1="165" y1="40" x2="165" y2="310.282" gradientUnits="userSpaceOnUse">
<stop stop-color="#EBD556"/>
<stop offset="1" stop-color="#FE3AA9"/>
</linearGradient>
</defs>
</svg>
